<svg id="svg" version="1.1" xmlns="http://www.w3.org/2000/svg" xmlns:xlink="http://www.w3.org/1999/xlink" width="400" height="400" viewBox="0, 0, 400,400"><g id="svgg"><path id="path0" d="M182.400 93.800 C 165.090 95.477,147.250 101.129,137.617 107.988 C 136.990 108.435,136.361 108.800,136.220 108.800 C 135.745 108.800,129.824 112.920,126.600 115.494 C 120.155 120.641,114.100 127.295,112.060 131.474 C 111.542 132.533,110.957 133.713,110.760 134.095 C 107.604 140.188,114.528 140.905,130.800 136.170 C 138.148 134.032,139.837 133.533,140.800 133.219 C 141.350 133.040,142.610 132.666,143.600 132.389 C 144.590 132.111,146.210 131.619,147.200 131.295 C 148.190 130.970,149.540 130.557,150.200 130.375 C 150.860 130.194,152.120 129.843,153.000 129.596 C 153.880 129.349,155.230 128.991,156.000 128.800 C 156.770 128.609,158.120 128.246,159.000 127.993 C 159.880 127.740,161.410 127.377,162.400 127.185 C 163.390 126.993,165.100 126.638,166.200 126.395 C 172.102 125.090,185.913 123.470,186.530 124.011 C 186.711 124.170,186.053 126.077,185.067 128.250 C 184.081 130.422,182.341 134.630,181.199 137.600 C 180.058 140.570,178.979 143.360,178.801 143.800 C 177.882 146.075,176.709 149.414,175.569 153.000 C 174.870 155.200,174.161 157.360,173.995 157.800 C 173.828 158.240,173.470 159.410,173.199 160.400 C 172.929 161.390,172.569 162.650,172.400 163.200 C 172.231 163.750,171.871 165.010,171.600 166.000 C 171.329 166.990,170.967 168.250,170.795 168.800 C 170.196 170.721,168.881 175.427,168.002 178.800 C 167.515 180.670,166.696 183.730,166.184 185.600 C 164.779 190.727,161.183 205.750,160.200 210.600 C 160.066 211.260,159.787 212.565,159.579 213.500 C 158.970 216.235,158.430 218.843,157.984 221.200 C 157.756 222.410,157.411 224.210,157.219 225.200 C 157.026 226.190,156.658 228.170,156.400 229.600 C 156.142 231.030,155.769 233.100,155.570 234.200 C 155.037 237.141,154.377 241.097,154.000 243.600 C 153.818 244.810,153.467 247.060,153.220 248.600 C 150.456 265.840,149.504 281.575,150.556 292.638 C 151.790 305.612,152.772 306.796,162.303 306.799 C 175.673 306.802,185.525 303.665,189.121 298.260 C 191.249 295.061,191.266 294.942,192.052 277.400 C 192.654 263.954,193.585 252.882,195.186 240.100 C 195.414 238.285,195.774 235.405,195.988 233.700 C 196.502 229.587,197.079 225.251,197.586 221.700 C 198.579 214.741,198.796 213.266,199.157 211.000 C 199.367 209.680,199.732 207.340,199.966 205.800 C 200.825 200.161,201.164 198.084,202.152 192.400 C 203.319 185.689,204.690 177.881,205.206 175.000 C 206.161 169.678,207.655 161.058,208.431 156.400 C 208.669 154.970,209.036 152.810,209.245 151.600 C 210.390 145.006,211.680 136.248,212.399 130.200 C 213.153 123.851,213.291 123.390,214.414 123.472 C 227.040 124.392,272.713 125.077,274.565 124.375 C 279.499 122.503,281.969 120.079,283.956 115.158 C 284.702 113.311,286.322 109.550,287.556 106.800 C 291.250 98.569,290.620 95.565,284.972 94.487 C 283.367 94.181,270.374 93.964,244.800 93.817 C 224.010 93.697,202.770 93.518,197.600 93.419 C 191.243 93.297,186.322 93.421,182.400 93.800 " stroke="none" fill="#fafafa" fill-rule="evenodd"></path><path id="path1" d="M30.400 0.291 C 29.630 0.382,28.829 0.624,28.620 0.829 C 28.411 1.033,27.837 1.200,27.344 1.200 C 26.851 1.200,26.336 1.380,26.200 1.600 C 26.064 1.820,25.513 2.000,24.976 2.000 C 24.439 2.000,24.000 2.180,24.000 2.400 C 24.000 2.620,23.640 2.800,23.200 2.800 C 22.760 2.800,22.400 2.980,22.400 3.200 C 22.400 3.420,22.040 3.600,21.600 3.600 C 21.160 3.600,20.800 3.780,20.800 4.000 C 20.800 4.220,20.440 4.400,20.000 4.400 C 19.560 4.400,19.200 4.580,19.200 4.800 C 19.200 5.020,18.912 5.200,18.560 5.200 C 18.209 5.200,17.417 5.740,16.800 6.400 C 16.183 7.060,15.476 7.600,15.229 7.600 C 14.244 7.600,7.600 14.244,7.600 15.229 C 7.600 15.476,7.060 16.183,6.400 16.800 C 5.740 17.417,5.200 18.209,5.200 18.560 C 5.200 18.912,5.020 19.200,4.800 19.200 C 4.580 19.200,4.400 19.560,4.400 20.000 C 4.400 20.440,4.220 20.800,4.000 20.800 C 3.780 20.800,3.600 21.160,3.600 21.600 C 3.600 22.040,3.420 22.400,3.200 22.400 C 2.980 22.400,2.800 22.760,2.800 23.200 C 2.800 23.640,2.620 24.000,2.400 24.000 C 2.180 24.000,2.000 24.439,2.000 24.976 C 2.000 25.513,1.820 26.064,1.600 26.200 C 1.380 26.336,1.200 26.851,1.200 27.344 C 1.200 27.837,0.975 28.465,0.700 28.740 C -0.036 29.476,-0.036 370.524,0.700 371.260 C 0.975 371.535,1.200 372.163,1.200 372.656 C 1.200 373.149,1.380 373.664,1.600 373.800 C 1.820 373.936,2.000 374.487,2.000 375.024 C 2.000 375.561,2.180 376.000,2.400 376.000 C 2.620 376.000,2.800 376.360,2.800 376.800 C 2.800 377.240,2.980 377.600,3.200 377.600 C 3.420 377.600,3.600 377.960,3.600 378.400 C 3.600 378.840,3.780 379.200,4.000 379.200 C 4.220 379.200,4.400 379.560,4.400 380.000 C 4.400 380.440,4.580 380.800,4.800 380.800 C 5.020 380.800,5.200 381.088,5.200 381.440 C 5.200 381.791,5.740 382.583,6.400 383.200 C 7.060 383.817,7.600 384.524,7.600 384.771 C 7.600 385.756,14.244 392.400,15.229 392.400 C 15.476 392.400,16.183 392.940,16.800 393.600 C 17.417 394.260,18.209 394.800,18.560 394.800 C 18.912 394.800,19.200 394.980,19.200 395.200 C 19.200 395.420,19.560 395.600,20.000 395.600 C 20.440 395.600,20.800 395.780,20.800 396.000 C 20.800 396.220,21.160 396.400,21.600 396.400 C 22.040 396.400,22.400 396.580,22.400 396.800 C 22.400 397.020,22.760 397.200,23.200 397.200 C 23.640 397.200,24.000 397.380,24.000 397.600 C 24.000 397.820,24.439 398.000,24.976 398.000 C 25.513 398.000,26.064 398.180,26.200 398.400 C 26.336 398.620,26.851 398.800,27.344 398.800 C 27.837 398.800,28.465 399.025,28.740 399.300 C 29.476 400.036,370.524 400.036,371.260 399.300 C 371.535 399.025,372.163 398.800,372.656 398.800 C 373.149 398.800,373.664 398.620,373.800 398.400 C 373.936 398.180,374.487 398.000,375.024 398.000 C 375.561 398.000,376.000 397.820,376.000 397.600 C 376.000 397.380,376.360 397.200,376.800 397.200 C 377.240 397.200,377.600 397.020,377.600 396.800 C 377.600 396.580,377.960 396.400,378.400 396.400 C 378.840 396.400,379.200 396.220,379.200 396.000 C 379.200 395.780,379.560 395.600,380.000 395.600 C 380.440 395.600,380.800 395.420,380.800 395.200 C 380.800 394.980,381.088 394.800,381.440 394.800 C 381.791 394.800,382.583 394.260,383.200 393.600 C 383.817 392.940,384.524 392.400,384.771 392.400 C 385.192 392.400,387.036 390.887,388.962 388.962 C 390.887 387.036,392.400 385.192,392.400 384.771 C 392.400 384.524,392.940 383.817,393.600 383.200 C 394.260 382.583,394.800 381.791,394.800 381.440 C 394.800 381.088,394.980 380.800,395.200 380.800 C 395.420 380.800,395.600 380.440,395.600 380.000 C 395.600 379.560,395.780 379.200,396.000 379.200 C 396.220 379.200,396.400 378.840,396.400 378.400 C 396.400 377.960,396.580 377.600,396.800 377.600 C 397.020 377.600,397.200 377.240,397.200 376.800 C 397.200 376.360,397.380 376.000,397.600 376.000 C 397.820 376.000,398.000 375.561,398.000 375.024 C 398.000 374.487,398.180 373.936,398.400 373.800 C 398.620 373.664,398.800 373.149,398.800 372.656 C 398.800 372.163,399.025 371.535,399.300 371.260 C 400.036 370.524,400.036 29.476,399.300 28.740 C 399.025 28.465,398.800 27.837,398.800 27.344 C 398.800 26.851,398.620 26.336,398.400 26.200 C 398.180 26.064,398.000 25.513,398.000 24.976 C 398.000 24.439,397.820 24.000,397.600 24.000 C 397.380 24.000,397.200 23.640,397.200 23.200 C 397.200 22.760,397.020 22.400,396.800 22.400 C 396.580 22.400,396.400 22.040,396.400 21.600 C 396.400 21.160,396.220 20.800,396.000 20.800 C 395.780 20.800,395.600 20.440,395.600 20.000 C 395.600 19.560,395.420 19.200,395.200 19.200 C 394.980 19.200,394.800 18.912,394.800 18.560 C 394.800 18.209,394.260 17.417,393.600 16.800 C 392.940 16.183,392.400 15.476,392.400 15.229 C 392.400 14.244,385.756 7.600,384.771 7.600 C 384.524 7.600,383.817 7.060,383.200 6.400 C 382.583 5.740,381.791 5.200,381.440 5.200 C 381.088 5.200,380.800 5.020,380.800 4.800 C 380.800 4.580,380.440 4.400,380.000 4.400 C 379.560 4.400,379.200 4.220,379.200 4.000 C 379.200 3.780,378.840 3.600,378.400 3.600 C 377.960 3.600,377.600 3.420,377.600 3.200 C 377.600 2.980,377.240 2.800,376.800 2.800 C 376.360 2.800,376.000 2.620,376.000 2.400 C 376.000 2.180,375.561 2.000,375.024 2.000 C 374.487 2.000,373.936 1.820,373.800 1.600 C 373.664 1.380,373.149 1.200,372.656 1.200 C 372.163 1.200,371.535 0.975,371.260 0.700 C 370.782 0.222,34.383 -0.182,30.400 0.291 M266.970 93.448 C 286.454 93.709,287.146 93.772,289.009 95.465 C 290.602 96.912,291.330 100.183,290.442 101.905 C 289.992 102.778,287.886 107.341,287.074 109.200 C 286.738 109.970,286.019 111.782,285.477 113.227 C 283.217 119.248,281.022 122.041,277.078 123.915 C 272.685 126.003,271.839 126.041,247.600 125.250 C 239.350 124.980,228.351 124.659,223.157 124.535 L 213.714 124.310 213.470 127.055 C 213.335 128.565,213.034 131.150,212.799 132.800 C 212.564 134.450,212.187 137.150,211.960 138.800 C 211.734 140.450,211.380 142.835,211.174 144.100 C 210.464 148.468,209.389 154.874,208.843 158.000 C 208.631 159.210,208.259 161.370,208.015 162.800 C 207.771 164.230,207.398 166.345,207.186 167.500 C 206.974 168.655,206.637 170.545,206.437 171.700 C 206.237 172.855,205.861 174.970,205.600 176.400 C 204.946 179.984,204.497 182.578,204.040 185.400 C 203.826 186.720,203.453 188.880,203.211 190.200 C 202.023 196.685,198.983 216.269,197.981 223.900 C 197.771 225.495,197.420 228.150,197.200 229.800 C 194.336 251.279,193.041 265.637,192.418 282.800 C 191.919 296.536,190.372 300.478,184.392 303.244 C 178.682 305.885,176.242 306.441,166.200 307.389 C 155.972 308.355,152.784 307.024,150.979 301.035 C 148.751 293.640,149.652 264.050,152.594 248.000 C 152.695 247.450,153.145 244.660,153.594 241.800 C 154.044 238.940,154.589 235.655,154.806 234.500 C 155.023 233.345,155.380 231.410,155.600 230.200 C 156.328 226.194,156.770 223.815,157.011 222.600 C 157.142 221.940,157.410 220.590,157.606 219.600 C 157.803 218.610,158.162 216.900,158.404 215.800 C 158.646 214.700,158.936 213.170,159.047 212.400 C 159.158 211.630,159.407 210.640,159.600 210.200 C 159.793 209.760,160.042 208.770,160.153 208.000 C 160.264 207.230,160.556 205.700,160.800 204.600 C 161.044 203.500,161.344 202.013,161.466 201.296 C 161.588 200.579,161.849 199.894,162.044 199.773 C 162.240 199.652,162.400 199.081,162.400 198.505 C 162.400 197.928,162.568 196.904,162.773 196.228 C 163.185 194.871,163.669 193.018,164.557 189.400 C 165.419 185.885,167.530 177.825,168.433 174.600 C 168.864 173.060,169.414 171.080,169.655 170.200 C 169.896 169.320,170.231 168.150,170.400 167.600 C 170.569 167.050,170.929 165.790,171.199 164.800 C 171.470 163.810,171.826 162.640,171.990 162.200 C 172.302 161.367,172.749 159.852,173.585 156.800 C 173.856 155.810,174.240 154.687,174.439 154.305 C 174.638 153.923,174.800 153.259,174.800 152.829 C 174.800 152.399,174.944 151.958,175.121 151.849 C 175.297 151.740,175.693 150.728,176.000 149.600 C 176.307 148.472,176.703 147.460,176.879 147.351 C 177.056 147.242,177.200 146.801,177.200 146.371 C 177.200 145.941,177.359 145.277,177.553 144.895 C 178.018 143.981,178.606 142.526,179.207 140.800 C 179.475 140.030,180.033 138.637,180.447 137.704 C 180.861 136.772,181.200 135.832,181.200 135.615 C 181.200 135.399,181.550 134.452,181.977 133.511 C 182.956 131.356,184.705 127.419,185.473 125.641 L 186.060 124.282 183.730 124.568 C 182.449 124.726,179.960 125.024,178.200 125.232 C 171.991 125.965,169.167 126.429,163.800 127.600 C 162.700 127.839,161.260 128.130,160.600 128.245 C 159.940 128.360,159.040 128.609,158.600 128.797 C 158.160 128.986,157.350 129.231,156.800 129.342 C 156.250 129.453,155.170 129.727,154.400 129.950 C 153.630 130.173,152.280 130.555,151.400 130.800 C 148.771 131.531,147.602 131.873,143.200 133.199 C 139.322 134.366,131.312 136.715,128.000 137.656 C 119.645 140.028,113.206 140.629,111.227 139.219 C 106.151 135.605,115.634 122.251,131.000 111.373 C 140.221 104.845,155.442 97.881,164.700 95.954 C 165.635 95.759,167.255 95.410,168.300 95.179 C 171.236 94.528,174.306 94.032,177.708 93.658 C 179.417 93.471,180.947 93.181,181.108 93.015 C 181.397 92.716,230.816 92.965,266.970 93.448 " stroke="none" fill="#040c24" fill-rule="evenodd"></path><path id="path2" d="M180.600 93.177 C 179.857 93.475,188.516 93.300,189.400 92.999 C 189.620 92.924,187.910 92.862,185.600 92.860 C 183.290 92.858,181.040 93.001,180.600 93.177 M194.433 92.945 C 194.525 93.024,208.100 93.173,224.600 93.276 C 241.100 93.378,250.280 93.338,245.000 93.185 C 234.842 92.892,194.150 92.699,194.433 92.945 M174.600 94.010 C 174.066 94.247,174.398 94.286,175.600 94.127 C 176.590 93.996,177.475 93.824,177.567 93.744 C 177.914 93.443,175.364 93.672,174.600 94.010 M284.033 93.743 C 284.125 93.821,284.830 94.001,285.600 94.142 C 286.585 94.323,286.822 94.282,286.400 94.006 C 285.858 93.650,283.637 93.403,284.033 93.743 M170.000 94.800 C 169.205 95.314,170.204 95.314,171.400 94.800 L 172.200 94.456 171.400 94.434 C 170.960 94.422,170.330 94.587,170.000 94.800 M166.400 95.618 C 165.962 95.915,166.124 95.952,167.000 95.756 C 168.471 95.427,168.790 95.198,167.767 95.206 C 167.345 95.209,166.730 95.395,166.400 95.618 M290.200 99.598 C 290.200 100.875,290.335 101.838,290.500 101.737 C 290.885 101.501,290.880 98.346,290.494 97.737 C 290.332 97.483,290.200 98.320,290.200 99.598 M145.100 103.026 C 144.055 103.570,143.200 104.105,143.200 104.214 C 143.200 104.393,147.160 102.523,147.567 102.152 C 148.062 101.701,146.761 102.162,145.100 103.026 M140.800 105.265 C 138.565 106.556,138.397 107.009,140.600 105.807 C 142.798 104.608,143.114 104.386,142.567 104.428 C 142.365 104.444,141.570 104.821,140.800 105.265 M136.800 107.636 C 136.136 108.179,136.069 108.315,136.600 108.040 C 137.905 107.366,138.628 106.812,138.200 106.815 C 137.980 106.817,137.350 107.186,136.800 107.636 M127.113 114.113 C 125.855 115.041,124.820 115.935,124.813 116.100 C 124.806 116.264,125.880 115.560,127.200 114.535 C 129.294 112.909,129.886 112.363,129.500 112.413 C 129.445 112.420,128.371 113.185,127.113 114.113 M284.200 115.461 C 283.864 116.265,283.682 117.015,283.795 117.128 C 283.908 117.241,284.000 117.235,284.000 117.116 C 284.000 116.996,284.272 116.246,284.605 115.449 C 284.938 114.652,285.121 114.000,285.011 114.000 C 284.901 114.000,284.536 114.658,284.200 115.461 M122.057 118.436 C 120.879 119.542,119.989 120.523,120.081 120.614 C 120.172 120.705,121.220 119.795,122.410 118.590 C 125.115 115.851,124.907 115.759,122.057 118.436 M282.185 119.300 C 281.568 120.235,281.320 120.789,281.632 120.531 C 282.233 120.034,283.764 117.600,283.476 117.600 C 283.383 117.600,282.802 118.365,282.185 119.300 M117.429 123.162 L 116.258 124.600 117.609 123.313 C 118.351 122.605,118.878 121.958,118.779 121.875 C 118.681 121.792,118.073 122.371,117.429 123.162 M213.364 124.551 C 213.247 124.854,213.220 125.979,213.304 127.051 L 213.456 129.000 213.528 126.714 L 213.600 124.428 217.700 124.298 L 221.800 124.169 217.687 124.084 C 214.505 124.019,213.527 124.125,213.364 124.551 M179.200 124.800 L 177.400 125.080 179.000 125.093 C 179.880 125.100,181.140 124.968,181.800 124.800 C 183.400 124.393,181.819 124.393,179.200 124.800 M233.600 124.799 C 237.659 125.132,245.444 125.300,245.167 125.049 C 245.075 124.966,241.580 124.806,237.400 124.693 C 232.261 124.555,231.031 124.589,233.600 124.799 M173.200 125.600 C 171.833 125.888,171.828 125.895,173.000 125.919 C 173.660 125.933,174.560 125.789,175.000 125.600 C 175.962 125.187,175.164 125.187,173.200 125.600 M262.713 125.721 C 266.331 125.950,269.501 125.964,270.481 125.754 C 271.666 125.501,269.928 125.391,264.368 125.367 L 256.600 125.334 262.713 125.721 M114.175 127.068 C 113.559 127.876,113.259 128.411,113.509 128.256 C 114.021 127.940,115.753 125.600,115.475 125.600 C 115.376 125.600,114.791 126.261,114.175 127.068 M168.000 126.400 L 167.000 126.720 168.000 126.754 C 168.550 126.773,169.270 126.613,169.600 126.400 C 170.364 125.906,169.542 125.906,168.000 126.400 M164.200 127.200 C 163.093 127.482,163.077 127.509,164.000 127.547 C 164.550 127.569,165.270 127.413,165.600 127.200 C 166.281 126.760,165.929 126.760,164.200 127.200 M160.600 128.000 C 159.493 128.282,159.477 128.309,160.400 128.347 C 160.950 128.369,161.670 128.213,162.000 128.000 C 162.681 127.560,162.329 127.560,160.600 128.000 M154.400 129.600 C 153.576 129.864,153.541 129.926,154.200 129.954 C 154.640 129.973,155.270 129.813,155.600 129.600 C 156.301 129.147,155.814 129.147,154.400 129.600 M111.400 131.200 C 111.059 131.860,110.869 132.400,110.979 132.400 C 111.089 132.400,111.459 131.860,111.800 131.200 C 112.141 130.540,112.331 130.000,112.221 130.000 C 112.111 130.000,111.741 130.540,111.400 131.200 M151.600 130.400 C 150.776 130.664,150.741 130.726,151.400 130.754 C 151.840 130.773,152.470 130.613,152.800 130.400 C 153.501 129.947,153.014 129.947,151.600 130.400 M148.800 131.200 C 147.976 131.464,147.941 131.526,148.600 131.554 C 149.040 131.573,149.670 131.413,150.000 131.200 C 150.701 130.747,150.214 130.747,148.800 131.200 M145.656 132.059 C 144.917 132.272,144.387 132.520,144.479 132.612 C 144.681 132.814,147.600 132.037,147.600 131.781 C 147.600 131.546,147.282 131.591,145.656 132.059 M212.509 133.200 C 212.509 134.190,212.587 134.595,212.682 134.100 C 212.778 133.605,212.778 132.795,212.682 132.300 C 212.587 131.805,212.509 132.210,212.509 133.200 M136.800 134.818 C 136.362 135.115,136.524 135.152,137.400 134.956 C 138.871 134.627,139.190 134.398,138.167 134.406 C 137.745 134.409,137.130 134.595,136.800 134.818 M125.600 138.000 C 125.067 138.345,125.067 138.388,125.600 138.388 C 125.930 138.388,126.470 138.213,126.800 138.000 C 127.333 137.655,127.333 137.612,126.800 137.612 C 126.470 137.612,125.930 137.787,125.600 138.000 M211.662 138.800 C 211.622 139.570,211.496 140.650,211.383 141.200 L 211.177 142.200 211.608 141.214 C 211.844 140.671,211.970 139.591,211.886 138.814 L 211.734 137.400 211.662 138.800 M117.400 139.600 L 115.800 139.886 117.200 139.903 C 117.970 139.913,119.050 139.776,119.600 139.600 C 120.885 139.188,119.699 139.188,117.400 139.600 M210.859 144.000 C 210.820 144.550,210.689 145.450,210.567 146.000 C 210.376 146.862,210.408 146.902,210.797 146.291 C 211.046 145.902,211.177 145.002,211.089 144.291 C 210.964 143.287,210.913 143.222,210.859 144.000 M210.049 149.200 C 210.016 149.530,209.889 150.250,209.767 150.800 C 209.575 151.664,209.607 151.703,209.999 151.088 C 210.248 150.697,210.375 149.977,210.281 149.488 C 210.186 149.000,210.082 148.870,210.049 149.200 M209.254 153.800 C 209.219 154.240,209.089 155.050,208.967 155.600 C 208.775 156.463,208.807 156.503,209.198 155.890 C 209.447 155.499,209.577 154.689,209.486 154.090 C 209.378 153.379,209.297 153.279,209.254 153.800 M174.267 154.267 C 174.120 154.413,174.011 154.908,174.025 155.367 C 174.049 156.133,174.082 156.123,174.434 155.242 C 174.826 154.263,174.744 153.789,174.267 154.267 M208.449 158.600 C 208.416 159.040,208.296 159.850,208.183 160.400 L 207.977 161.400 208.406 160.419 C 208.642 159.879,208.761 159.069,208.672 158.619 C 208.513 157.821,208.507 157.821,208.449 158.600 M207.649 163.200 C 207.616 163.530,207.489 164.250,207.367 164.800 C 207.175 165.664,207.207 165.703,207.599 165.088 C 207.848 164.697,207.975 163.977,207.881 163.488 C 207.786 163.000,207.682 162.870,207.649 163.200 M171.049 165.015 C 170.912 165.373,170.815 165.966,170.834 166.333 C 170.853 166.700,171.027 166.469,171.221 165.820 C 171.598 164.558,171.465 163.933,171.049 165.015 M170.249 167.815 C 170.112 168.173,170.015 168.766,170.034 169.133 C 170.053 169.500,170.227 169.269,170.421 168.620 C 170.798 167.358,170.665 166.733,170.249 167.815 M206.849 167.600 C 206.816 167.930,206.689 168.650,206.567 169.200 C 206.375 170.064,206.407 170.103,206.799 169.488 C 207.048 169.097,207.175 168.377,207.081 167.888 C 206.986 167.400,206.882 167.270,206.849 167.600 M169.449 170.615 C 169.312 170.973,169.215 171.566,169.234 171.933 C 169.253 172.300,169.427 172.069,169.621 171.420 C 169.998 170.158,169.865 169.533,169.449 170.615 M205.850 173.250 C 205.517 174.917,205.840 175.240,206.200 173.600 C 206.352 172.909,206.393 172.259,206.291 172.158 C 206.189 172.056,205.991 172.547,205.850 173.250 M168.446 174.467 C 168.421 174.834,168.296 175.464,168.170 175.867 C 167.952 176.562,167.963 176.563,168.397 175.887 C 168.648 175.496,168.773 174.866,168.673 174.487 C 168.511 173.868,168.488 173.866,168.446 174.467 M205.050 177.650 C 204.909 178.353,204.869 179.002,204.959 179.092 C 205.050 179.183,205.248 178.691,205.400 178.000 C 205.552 177.309,205.593 176.659,205.491 176.558 C 205.389 176.456,205.191 176.947,205.050 177.650 M167.646 177.267 C 167.621 177.634,167.496 178.264,167.370 178.667 C 167.152 179.362,167.163 179.363,167.597 178.687 C 167.848 178.296,167.973 177.666,167.873 177.287 C 167.711 176.668,167.688 176.666,167.646 177.267 M204.229 182.229 C 204.081 182.815,204.051 183.384,204.161 183.494 C 204.271 183.604,204.481 183.215,204.629 182.629 C 204.776 182.042,204.806 181.473,204.696 181.363 C 204.586 181.253,204.376 181.642,204.229 182.229 M203.422 187.022 C 203.272 187.825,203.228 188.562,203.326 188.660 C 203.424 188.757,203.627 188.181,203.778 187.378 C 203.928 186.575,203.972 185.838,203.874 185.740 C 203.776 185.643,203.573 186.219,203.422 187.022 M164.229 190.229 C 164.081 190.815,164.038 191.372,164.132 191.466 C 164.227 191.560,164.424 191.158,164.571 190.571 C 164.719 189.985,164.762 189.428,164.668 189.334 C 164.573 189.240,164.376 189.642,164.229 190.229 M202.600 191.600 C 202.448 192.291,202.407 192.941,202.509 193.042 C 202.611 193.144,202.809 192.653,202.950 191.950 C 203.283 190.283,202.960 189.960,202.600 191.600 M201.693 197.600 C 201.693 198.370,201.775 198.685,201.876 198.300 C 201.976 197.915,201.976 197.285,201.876 196.900 C 201.775 196.515,201.693 196.830,201.693 197.600 M161.867 199.867 C 161.720 200.013,161.611 200.508,161.625 200.967 C 161.649 201.733,161.682 201.723,162.034 200.842 C 162.426 199.863,162.344 199.389,161.867 199.867 M201.069 200.756 C 200.921 201.495,200.820 202.483,200.844 202.950 C 200.868 203.418,201.047 202.990,201.242 202.000 C 201.437 201.010,201.538 200.023,201.467 199.806 C 201.396 199.590,201.217 200.017,201.069 200.756 M161.073 202.953 C 160.923 203.345,160.811 203.966,160.825 204.333 C 160.842 204.775,160.981 204.674,161.237 204.034 C 161.449 203.503,161.561 202.882,161.485 202.654 C 161.409 202.427,161.224 202.561,161.073 202.953 M200.269 205.556 C 200.121 206.295,200.020 207.282,200.044 207.750 C 200.068 208.218,200.247 207.790,200.442 206.800 C 200.637 205.810,200.738 204.823,200.667 204.606 C 200.596 204.390,200.417 204.817,200.269 205.556 M160.249 206.615 C 160.112 206.973,160.015 207.566,160.034 207.933 C 160.053 208.300,160.227 208.069,160.421 207.420 C 160.798 206.158,160.665 205.533,160.249 206.615 M159.467 210.267 C 159.320 210.413,159.215 210.998,159.234 211.567 C 159.268 212.581,159.275 212.579,159.621 211.420 C 159.985 210.203,159.931 209.802,159.467 210.267 M199.301 213.000 C 199.305 213.880,199.387 214.193,199.483 213.695 C 199.579 213.198,199.575 212.478,199.475 212.095 C 199.375 211.713,199.296 212.120,199.301 213.000 M158.649 214.215 C 158.512 214.573,158.415 215.166,158.434 215.533 C 158.453 215.900,158.627 215.669,158.821 215.020 C 159.198 213.758,159.065 213.133,158.649 214.215 M198.509 218.400 C 198.509 219.390,198.587 219.795,198.682 219.300 C 198.778 218.805,198.778 217.995,198.682 217.500 C 198.587 217.005,198.509 217.410,198.509 218.400 M157.849 217.815 C 157.712 218.173,157.618 218.856,157.641 219.333 C 157.667 219.881,157.803 219.686,158.010 218.803 C 158.360 217.316,158.265 216.733,157.849 217.815 M157.049 221.815 C 156.912 222.173,156.821 222.946,156.846 223.533 C 156.880 224.332,156.970 224.198,157.204 223.000 C 157.535 221.300,157.462 220.740,157.049 221.815 M197.664 223.850 C 197.629 224.538,197.511 225.707,197.401 226.450 L 197.203 227.800 197.624 226.458 C 197.855 225.720,197.973 224.550,197.886 223.858 L 197.728 222.600 197.664 223.850 M156.256 226.084 C 156.121 226.588,156.028 227.450,156.049 228.000 C 156.072 228.589,156.231 228.271,156.436 227.225 C 156.803 225.352,156.673 224.527,156.256 226.084 M196.867 229.650 C 196.830 230.447,196.711 231.707,196.601 232.450 L 196.403 233.800 196.823 232.460 C 197.054 231.723,197.174 230.463,197.089 229.660 L 196.934 228.200 196.867 229.650 M155.456 230.484 C 155.321 230.988,155.228 231.850,155.249 232.400 C 155.272 232.989,155.431 232.671,155.636 231.625 C 156.003 229.752,155.873 228.927,155.456 230.484 M154.656 234.884 C 154.521 235.388,154.428 236.250,154.449 236.800 C 154.472 237.389,154.631 237.071,154.836 236.025 C 155.203 234.152,155.073 233.327,154.656 234.884 M196.114 236.200 C 196.117 237.300,196.195 237.703,196.287 237.095 C 196.379 236.486,196.377 235.586,196.282 235.095 C 196.187 234.603,196.111 235.100,196.114 236.200 M153.693 241.600 C 153.693 242.370,153.775 242.685,153.876 242.300 C 153.976 241.915,153.976 241.285,153.876 240.900 C 153.775 240.515,153.693 240.830,153.693 241.600 M195.267 242.850 C 195.230 243.648,195.111 244.907,195.001 245.650 L 194.803 247.000 195.223 245.660 C 195.454 244.923,195.574 243.663,195.489 242.860 L 195.334 241.400 195.267 242.850 M152.901 246.600 C 152.905 247.480,152.987 247.793,153.083 247.295 C 153.179 246.798,153.175 246.078,153.075 245.695 C 152.975 245.313,152.896 245.720,152.901 246.600 M152.253 249.636 C 152.114 250.331,152.022 251.463,152.049 252.150 C 152.078 252.894,152.238 252.440,152.443 251.028 C 152.811 248.504,152.676 247.518,152.253 249.636 M194.465 249.800 C 194.425 250.680,194.306 252.120,194.202 253.000 L 194.012 254.600 194.423 253.000 C 194.648 252.120,194.767 250.680,194.686 249.800 L 194.540 248.200 194.465 249.800 M151.301 257.800 C 151.305 258.680,151.387 258.993,151.483 258.495 C 151.579 257.998,151.575 257.278,151.475 256.895 C 151.375 256.513,151.296 256.920,151.301 257.800 M193.672 257.844 C 193.632 258.748,193.515 260.368,193.410 261.444 L 193.220 263.400 193.617 261.600 C 193.836 260.610,193.954 258.990,193.879 258.000 L 193.744 256.200 193.672 257.844 M150.893 260.800 C 150.893 261.570,150.975 261.885,151.076 261.500 C 151.176 261.115,151.176 260.485,151.076 260.100 C 150.975 259.715,150.893 260.030,150.893 260.800 M150.232 266.632 C 150.077 268.531,150.035 270.168,150.137 270.271 C 150.240 270.373,150.453 268.906,150.611 267.011 C 150.768 265.115,150.811 263.477,150.705 263.371 C 150.599 263.265,150.386 264.732,150.232 266.632 M192.664 270.540 C 192.489 272.706,192.431 274.565,192.536 274.669 C 192.809 274.942,193.302 269.228,193.128 267.800 C 193.048 267.140,192.839 268.373,192.664 270.540 M149.767 282.200 C 149.767 286.380,149.826 288.036,149.898 285.879 C 149.971 283.723,149.970 280.303,149.898 278.279 C 149.825 276.256,149.766 278.020,149.767 282.200 M192.088 285.250 C 192.039 288.028,191.905 290.907,191.789 291.650 C 191.600 292.863,191.621 292.902,192.000 292.036 C 192.250 291.465,192.372 288.855,192.299 285.636 L 192.175 280.200 192.088 285.250 M150.085 294.600 C 150.077 295.260,150.210 296.700,150.382 297.800 C 150.636 299.435,150.697 299.545,150.717 298.400 C 150.730 297.630,150.597 296.190,150.420 295.200 C 150.188 293.891,150.096 293.728,150.085 294.600 M187.600 300.511 C 186.830 301.220,185.750 302.123,185.200 302.517 C 184.235 303.210,184.246 303.210,185.512 302.524 C 186.652 301.907,189.668 299.181,189.178 299.211 C 189.080 299.217,188.370 299.802,187.600 300.511 M170.400 306.800 L 169.000 307.095 170.400 307.141 C 171.170 307.167,172.070 307.013,172.400 306.800 C 173.127 306.330,172.633 306.330,170.400 306.800 M158.600 307.620 C 159.262 307.811,161.324 307.820,163.200 307.638 L 166.600 307.309 162.000 307.291 C 158.769 307.278,157.757 307.376,158.600 307.620 " stroke="none" fill="#5c6274" fill-rule="evenodd"></path><path id="path3" d="M184.707 93.490 C 185.426 93.579,186.506 93.577,187.107 93.486 C 187.708 93.395,187.120 93.322,185.800 93.324 C 184.480 93.326,183.988 93.401,184.707 93.490 M207.100 93.499 C 210.455 93.566,215.945 93.566,219.300 93.499 C 222.655 93.432,219.910 93.378,213.200 93.378 C 206.490 93.378,203.745 93.432,207.100 93.499 M179.300 93.887 C 179.905 93.978,180.895 93.978,181.500 93.887 C 182.105 93.795,181.610 93.720,180.400 93.720 C 179.190 93.720,178.695 93.795,179.300 93.887 M242.929 93.900 C 250.150 93.961,261.850 93.961,268.929 93.900 C 276.008 93.839,270.100 93.789,255.800 93.789 C 241.500 93.789,235.708 93.839,242.929 93.900 M285.741 94.605 C 286.809 94.898,288.159 95.557,288.741 96.069 L 289.800 97.000 288.830 95.899 C 287.921 94.869,285.763 93.962,284.400 94.038 C 284.070 94.056,284.674 94.312,285.741 94.605 M173.100 94.682 C 173.595 94.778,174.405 94.778,174.900 94.682 C 175.395 94.587,174.990 94.509,174.000 94.509 C 173.010 94.509,172.605 94.587,173.100 94.682 M169.800 95.200 C 168.711 95.477,168.693 95.507,169.600 95.525 C 170.150 95.535,170.960 95.389,171.400 95.200 C 172.386 94.776,171.466 94.776,169.800 95.200 M290.059 99.400 C 290.020 100.060,289.896 101.050,289.783 101.600 L 289.577 102.600 290.008 101.614 C 290.244 101.072,290.368 100.082,290.283 99.414 L 290.128 98.200 290.059 99.400 M288.000 105.284 C 288.000 105.404,287.728 106.154,287.395 106.951 C 287.062 107.748,286.879 108.400,286.989 108.400 C 287.306 108.400,288.433 105.500,288.205 105.272 C 288.092 105.159,288.000 105.165,288.000 105.284 M137.000 108.000 C 136.340 108.437,135.980 108.792,136.200 108.788 C 136.601 108.782,138.776 107.223,138.400 107.212 C 138.290 107.208,137.660 107.563,137.000 108.000 M131.493 111.414 C 130.672 111.972,130.000 112.515,130.000 112.620 C 130.000 112.725,130.720 112.335,131.600 111.753 C 132.997 110.828,133.470 110.400,133.093 110.400 C 133.034 110.400,132.314 110.856,131.493 111.414 M126.000 115.572 C 124.130 117.085,121.970 119.012,121.200 119.852 C 120.209 120.933,120.443 120.792,122.000 119.369 C 123.210 118.263,125.415 116.406,126.900 115.243 C 129.232 113.416,129.923 112.769,129.500 112.810 C 129.445 112.815,127.870 114.058,126.000 115.572 M283.472 116.219 C 282.532 118.189,282.664 118.524,283.647 116.662 C 284.093 115.816,284.387 115.054,284.301 114.967 C 284.214 114.881,283.841 115.444,283.472 116.219 M281.008 120.300 C 280.149 121.345,279.860 121.840,280.366 121.400 C 281.261 120.622,282.998 118.400,282.712 118.400 C 282.634 118.400,281.867 119.255,281.008 120.300 M117.568 123.500 C 115.209 126.143,114.674 126.800,114.882 126.800 C 115.003 126.800,115.949 125.810,116.982 124.600 C 118.896 122.360,119.355 121.498,117.568 123.500 M185.889 124.049 C 186.136 124.296,186.248 124.791,186.139 125.149 C 185.978 125.674,186.027 125.664,186.391 125.097 C 186.878 124.339,186.634 123.600,185.896 123.600 C 185.559 123.600,185.557 123.717,185.889 124.049 M217.111 123.893 C 218.051 123.978,219.491 123.977,220.311 123.891 C 221.130 123.805,220.360 123.736,218.600 123.737 C 216.840 123.739,216.170 123.809,217.111 123.893 M181.507 124.290 C 182.226 124.379,183.306 124.377,183.907 124.286 C 184.508 124.195,183.920 124.122,182.600 124.124 C 181.280 124.126,180.788 124.201,181.507 124.290 M228.120 124.298 C 230.055 124.372,233.115 124.371,234.920 124.297 C 236.724 124.223,235.140 124.163,231.400 124.164 C 227.660 124.164,226.184 124.225,228.120 124.298 M239.500 124.689 C 240.215 124.778,241.385 124.778,242.100 124.689 C 242.815 124.601,242.230 124.528,240.800 124.528 C 239.370 124.528,238.785 124.601,239.500 124.689 M173.000 125.203 C 172.485 125.426,172.913 125.467,174.200 125.318 C 175.300 125.191,176.275 125.023,176.367 124.944 C 176.714 124.645,173.764 124.872,173.000 125.203 M258.567 125.180 C 263.829 125.301,269.229 125.292,270.567 125.161 C 271.905 125.030,267.600 124.930,261.000 124.941 L 249.000 124.959 258.567 125.180 M168.000 126.012 C 167.581 126.291,167.942 126.333,169.200 126.150 C 171.441 125.825,171.760 125.598,169.967 125.606 C 169.215 125.609,168.330 125.792,168.000 126.012 M184.678 128.220 C 183.209 131.214,183.345 131.569,184.846 128.660 C 185.510 127.373,185.986 126.253,185.904 126.171 C 185.823 126.089,185.271 127.011,184.678 128.220 M212.585 128.185 C 212.430 129.423,212.393 130.527,212.503 130.637 C 212.613 130.747,212.830 129.823,212.985 128.585 C 213.139 127.346,213.176 126.243,213.066 126.133 C 212.956 126.023,212.739 126.946,212.585 128.185 M164.400 126.806 C 163.978 127.082,164.215 127.123,165.200 126.942 C 166.925 126.625,167.251 126.398,165.967 126.406 C 165.435 126.409,164.730 126.589,164.400 126.806 M160.400 127.600 C 159.636 128.094,160.458 128.094,162.000 127.600 L 163.000 127.280 162.000 127.246 C 161.450 127.227,160.730 127.387,160.400 127.600 M154.400 129.218 C 153.962 129.515,154.124 129.552,155.000 129.356 C 156.471 129.027,156.790 128.798,155.767 128.806 C 155.345 128.809,154.730 128.995,154.400 129.218 M148.800 130.800 C 148.267 131.145,148.267 131.188,148.800 131.188 C 149.130 131.188,149.670 131.013,150.000 130.800 C 150.533 130.455,150.533 130.412,150.000 130.412 C 149.670 130.412,149.130 130.587,148.800 130.800 M182.667 132.867 C 182.305 133.788,182.074 134.607,182.154 134.688 C 182.234 134.768,182.600 134.083,182.967 133.167 C 183.333 132.250,183.564 131.431,183.479 131.346 C 183.394 131.261,183.029 131.945,182.667 132.867 M211.869 133.956 C 211.721 134.695,211.620 135.683,211.644 136.150 C 211.668 136.618,211.847 136.190,212.042 135.200 C 212.237 134.210,212.338 133.223,212.267 133.006 C 212.196 132.790,212.017 133.217,211.869 133.956 M135.600 134.800 C 135.067 135.145,135.067 135.188,135.600 135.188 C 135.930 135.188,136.470 135.013,136.800 134.800 C 137.333 134.455,137.333 134.412,136.800 134.412 C 136.470 134.412,135.930 134.587,135.600 134.800 M110.093 136.400 C 110.093 137.170,110.175 137.485,110.276 137.100 C 110.376 136.715,110.376 136.085,110.276 135.700 C 110.175 135.315,110.093 135.630,110.093 136.400 M132.600 135.600 C 132.096 135.817,132.022 135.944,132.400 135.944 C 132.730 135.944,133.360 135.789,133.800 135.600 C 134.304 135.383,134.378 135.256,134.000 135.256 C 133.670 135.256,133.040 135.411,132.600 135.600 M127.200 137.200 C 126.376 137.464,126.341 137.526,127.000 137.554 C 127.440 137.573,128.070 137.413,128.400 137.200 C 129.101 136.747,128.614 136.747,127.200 137.200 M180.050 139.450 C 179.573 140.696,179.250 141.784,179.333 141.866 C 179.415 141.949,179.873 140.996,180.350 139.750 C 180.827 138.504,181.150 137.416,181.067 137.334 C 180.985 137.251,180.527 138.204,180.050 139.450 M124.000 138.000 C 123.196 138.257,123.157 138.323,123.800 138.332 C 124.240 138.338,124.960 138.189,125.400 138.000 C 126.419 137.562,125.368 137.562,124.000 138.000 M211.069 139.556 C 210.921 140.295,210.820 141.282,210.844 141.750 C 210.868 142.218,211.047 141.790,211.242 140.800 C 211.437 139.810,211.538 138.823,211.467 138.606 C 211.396 138.390,211.217 138.817,211.069 139.556 M119.300 139.076 C 119.685 139.176,120.315 139.176,120.700 139.076 C 121.085 138.975,120.770 138.893,120.000 138.893 C 119.230 138.893,118.915 138.975,119.300 139.076 M116.500 139.476 C 116.885 139.576,117.515 139.576,117.900 139.476 C 118.285 139.375,117.970 139.293,117.200 139.293 C 116.430 139.293,116.115 139.375,116.500 139.476 M210.256 144.884 C 210.121 145.388,210.030 146.340,210.053 147.000 C 210.081 147.828,210.197 147.584,210.426 146.213 C 210.776 144.123,210.674 143.326,210.256 144.884 M177.691 145.700 C 177.010 147.584,177.104 148.094,177.826 146.430 C 178.153 145.677,178.366 144.899,178.301 144.702 C 178.235 144.505,177.960 144.954,177.691 145.700 M209.449 149.815 C 209.312 150.173,209.221 150.946,209.246 151.533 C 209.280 152.332,209.370 152.198,209.604 151.000 C 209.935 149.300,209.862 148.740,209.449 149.815 M208.656 154.484 C 208.521 154.988,208.428 155.850,208.449 156.400 C 208.472 156.989,208.631 156.671,208.836 155.625 C 209.203 153.752,209.073 152.927,208.656 154.484 M207.856 159.284 C 207.721 159.788,207.630 160.740,207.653 161.400 C 207.681 162.228,207.797 161.984,208.026 160.613 C 208.376 158.523,208.274 157.726,207.856 159.284 M206.893 165.600 C 206.893 166.370,206.975 166.685,207.076 166.300 C 207.176 165.915,207.176 165.285,207.076 164.900 C 206.975 164.515,206.893 164.830,206.893 165.600 M206.093 170.400 C 206.093 171.170,206.175 171.485,206.276 171.100 C 206.376 170.715,206.376 170.085,206.276 169.700 C 206.175 169.315,206.093 169.630,206.093 170.400 M169.800 170.800 C 169.650 171.273,169.617 171.750,169.727 171.860 C 169.837 171.970,170.050 171.673,170.200 171.200 C 170.350 170.727,170.383 170.250,170.273 170.140 C 170.163 170.030,169.950 170.327,169.800 170.800 M205.293 174.800 C 205.293 175.570,205.375 175.885,205.476 175.500 C 205.576 175.115,205.576 174.485,205.476 174.100 C 205.375 173.715,205.293 174.030,205.293 174.800 M168.229 176.629 C 168.081 177.215,168.038 177.772,168.132 177.866 C 168.227 177.960,168.424 177.558,168.571 176.971 C 168.719 176.385,168.762 175.828,168.668 175.734 C 168.573 175.640,168.376 176.042,168.229 176.629 M204.493 179.200 C 204.493 179.970,204.575 180.285,204.676 179.900 C 204.776 179.515,204.776 178.885,204.676 178.500 C 204.575 178.115,204.493 178.430,204.493 179.200 M166.600 182.800 C 166.448 183.491,166.407 184.141,166.509 184.242 C 166.611 184.344,166.809 183.853,166.950 183.150 C 167.283 181.483,166.960 181.160,166.600 182.800 M203.440 184.840 C 203.293 185.757,203.252 186.585,203.347 186.680 C 203.442 186.776,203.646 186.110,203.800 185.200 C 203.954 184.290,203.996 183.462,203.893 183.360 C 203.790 183.257,203.587 183.923,203.440 184.840 M165.849 185.415 C 165.712 185.773,165.615 186.366,165.634 186.733 C 165.653 187.100,165.827 186.869,166.021 186.220 C 166.398 184.958,166.265 184.333,165.849 185.415 M202.640 189.240 C 202.493 190.157,202.452 190.985,202.547 191.080 C 202.642 191.176,202.846 190.510,203.000 189.600 C 203.154 188.690,203.196 187.862,203.093 187.760 C 202.990 187.657,202.787 188.323,202.640 189.240 M201.000 198.800 C 200.846 199.710,200.811 200.544,200.921 200.654 C 201.031 200.764,201.246 200.110,201.400 199.200 C 201.554 198.290,201.589 197.456,201.479 197.346 C 201.369 197.236,201.154 197.890,201.000 198.800 M161.450 203.250 C 161.117 204.917,161.440 205.240,161.800 203.600 C 161.952 202.909,161.993 202.259,161.891 202.158 C 161.789 202.056,161.591 202.547,161.450 203.250 M200.240 203.640 C 200.093 204.557,200.052 205.385,200.147 205.480 C 200.242 205.576,200.446 204.910,200.600 204.000 C 200.754 203.090,200.796 202.262,200.693 202.160 C 200.590 202.057,200.387 202.723,200.240 203.640 M160.849 205.800 C 160.816 206.240,160.696 207.050,160.583 207.600 L 160.377 208.600 160.806 207.619 C 161.042 207.079,161.161 206.269,161.072 205.819 C 160.913 205.021,160.907 205.021,160.849 205.800 M199.378 208.978 C 199.227 209.781,199.194 210.527,199.304 210.637 C 199.414 210.747,199.627 210.181,199.778 209.378 C 199.928 208.575,199.962 207.828,199.852 207.718 C 199.742 207.608,199.528 208.175,199.378 208.978 M160.054 209.867 C 160.025 210.344,159.896 211.064,159.770 211.467 C 159.552 212.161,159.564 212.162,159.996 211.488 C 160.247 211.097,160.375 210.377,160.281 209.888 C 160.109 209.001,160.109 209.001,160.054 209.867 M198.600 214.000 C 198.446 214.910,198.411 215.744,198.521 215.854 C 198.631 215.964,198.846 215.310,199.000 214.400 C 199.154 213.490,199.189 212.656,199.079 212.546 C 198.969 212.436,198.754 213.090,198.600 214.000 M159.254 213.467 C 159.225 213.944,159.096 214.664,158.970 215.067 C 158.752 215.761,158.764 215.762,159.196 215.088 C 159.447 214.697,159.575 213.977,159.481 213.488 C 159.309 212.601,159.309 212.601,159.254 213.467 M158.449 217.000 C 158.416 217.440,158.296 218.250,158.183 218.800 L 157.977 219.800 158.406 218.819 C 158.642 218.279,158.761 217.469,158.672 217.019 C 158.513 216.221,158.507 216.221,158.449 217.000 M197.869 219.156 C 197.721 219.895,197.620 220.882,197.644 221.350 C 197.668 221.818,197.847 221.390,198.042 220.400 C 198.237 219.410,198.338 218.423,198.267 218.206 C 198.196 217.990,198.017 218.417,197.869 219.156 M157.649 221.200 C 157.616 221.530,157.489 222.250,157.367 222.800 C 157.175 223.664,157.207 223.703,157.599 223.088 C 157.848 222.697,157.975 221.977,157.881 221.488 C 157.786 221.000,157.682 220.870,157.649 221.200 M197.069 224.756 C 196.921 225.495,196.820 226.482,196.844 226.950 C 196.868 227.418,197.047 226.990,197.242 226.000 C 197.437 225.010,197.538 224.023,197.467 223.806 C 197.396 223.590,197.217 224.017,197.069 224.756 M156.849 225.400 C 156.816 225.840,156.696 226.650,156.583 227.200 L 156.377 228.200 156.806 227.219 C 157.042 226.679,157.161 225.869,157.072 225.419 C 156.913 224.621,156.907 224.621,156.849 225.400 M155.850 230.850 C 155.517 232.517,155.840 232.840,156.200 231.200 C 156.352 230.509,156.393 229.859,156.291 229.758 C 156.189 229.656,155.991 230.147,155.850 230.850 M196.269 230.756 C 196.121 231.495,196.020 232.482,196.044 232.950 C 196.068 233.418,196.247 232.990,196.442 232.000 C 196.637 231.010,196.738 230.023,196.667 229.806 C 196.596 229.590,196.417 230.017,196.269 230.756 M155.249 234.200 C 155.216 234.640,155.096 235.450,154.983 236.000 L 154.777 237.000 155.206 236.019 C 155.442 235.479,155.561 234.669,155.472 234.219 C 155.313 233.421,155.307 233.421,155.249 234.200 M195.453 237.236 C 195.314 237.931,195.221 238.972,195.247 239.550 C 195.272 240.128,195.455 239.627,195.652 238.439 C 196.037 236.121,195.873 235.134,195.453 237.236 M154.449 239.000 C 154.416 239.440,154.296 240.250,154.183 240.800 L 153.977 241.800 154.406 240.819 C 154.642 240.279,154.761 239.469,154.672 239.019 C 154.513 238.221,154.507 238.221,154.449 239.000 M194.669 243.556 C 194.521 244.295,194.421 245.463,194.447 246.150 C 194.479 247.012,194.605 246.725,194.855 245.223 C 195.253 242.821,195.097 241.417,194.669 243.556 M153.422 245.022 C 153.272 245.825,153.238 246.572,153.348 246.682 C 153.458 246.792,153.672 246.225,153.822 245.422 C 153.973 244.619,154.006 243.873,153.896 243.763 C 153.786 243.653,153.573 244.219,153.422 245.022 M152.622 250.222 C 152.472 251.025,152.428 251.762,152.526 251.860 C 152.624 251.957,152.827 251.381,152.978 250.578 C 153.128 249.775,153.172 249.038,153.074 248.940 C 152.976 248.843,152.773 249.419,152.622 250.222 M193.869 250.756 C 193.721 251.495,193.623 252.843,193.651 253.750 C 193.692 255.102,193.763 254.930,194.044 252.800 C 194.417 249.965,194.300 248.599,193.869 250.756 M151.800 256.000 C 151.645 257.128,151.602 258.136,151.706 258.239 C 151.809 258.342,152.016 257.500,152.167 256.367 C 152.317 255.234,152.359 254.226,152.261 254.128 C 152.163 254.029,151.955 254.872,151.800 256.000 M193.059 259.488 C 192.921 260.319,192.832 261.990,192.860 263.200 C 192.901 264.963,192.975 264.687,193.229 261.807 C 193.563 258.033,193.482 256.928,193.059 259.488 M151.013 262.613 C 150.857 264.071,150.814 265.347,150.916 265.450 C 151.019 265.552,151.231 264.444,151.387 262.987 C 151.543 261.529,151.586 260.253,151.484 260.150 C 151.381 260.048,151.169 261.156,151.013 262.613 M192.260 269.690 C 192.121 270.851,192.032 273.150,192.062 274.800 C 192.107 277.258,192.175 276.899,192.434 272.809 C 192.767 267.561,192.688 266.131,192.260 269.690 M150.189 271.789 C 150.032 273.685,149.989 275.323,150.095 275.429 C 150.201 275.535,150.414 274.068,150.568 272.168 C 150.723 270.269,150.765 268.632,150.663 268.529 C 150.560 268.427,150.347 269.894,150.189 271.789 M191.751 286.000 C 191.751 288.530,191.816 289.565,191.896 288.300 C 191.975 287.035,191.975 284.965,191.896 283.700 C 191.816 282.435,191.751 283.470,191.751 286.000 M150.030 290.433 C 150.046 291.405,150.212 293.010,150.398 294.000 C 150.643 295.308,150.676 294.870,150.517 292.400 C 150.281 288.748,149.981 287.536,150.030 290.433 M191.301 292.600 C 191.305 293.480,191.387 293.793,191.483 293.295 C 191.579 292.798,191.575 292.078,191.475 291.695 C 191.375 291.313,191.296 291.720,191.301 292.600 M150.806 298.633 C 150.809 299.275,150.984 300.070,151.195 300.400 C 151.455 300.809,151.499 300.490,151.332 299.400 C 151.029 297.423,150.798 297.086,150.806 298.633 M185.400 301.857 L 184.200 302.885 185.500 302.156 C 186.215 301.755,186.800 301.286,186.800 301.114 C 186.800 300.675,186.746 300.703,185.400 301.857 M152.983 304.381 C 153.490 305.201,154.901 306.380,155.389 306.391 C 155.603 306.396,155.333 306.091,154.789 305.712 C 154.245 305.334,153.530 304.741,153.200 304.393 C 152.683 303.850,152.653 303.848,152.983 304.381 M177.200 305.200 C 176.376 305.464,176.341 305.526,177.000 305.554 C 177.440 305.573,178.070 305.413,178.400 305.200 C 179.101 304.747,178.614 304.747,177.200 305.200 M172.500 306.276 C 172.885 306.376,173.515 306.376,173.900 306.276 C 174.285 306.175,173.970 306.093,173.200 306.093 C 172.430 306.093,172.115 306.175,172.500 306.276 M159.718 307.098 C 161.433 307.173,164.133 307.172,165.718 307.097 C 167.303 307.021,165.900 306.959,162.600 306.960 C 159.300 306.961,158.003 307.022,159.718 307.098 " stroke="none" fill="#888c9a" fill-rule="evenodd"></path><path id="path4" d="M190.700 93.089 C 191.415 93.178,192.585 93.178,193.300 93.089 C 194.015 93.001,193.430 92.928,192.000 92.928 C 190.570 92.928,189.985 93.001,190.700 93.089 M227.113 93.495 C 228.276 93.576,230.076 93.576,231.113 93.493 C 232.151 93.411,231.200 93.345,229.000 93.346 C 226.800 93.347,225.951 93.414,227.113 93.495 M282.100 93.876 C 282.485 93.976,283.115 93.976,283.500 93.876 C 283.885 93.775,283.570 93.693,282.800 93.693 C 282.030 93.693,281.715 93.775,282.100 93.876 M222.300 124.282 C 222.795 124.378,223.605 124.378,224.100 124.282 C 224.595 124.187,224.190 124.109,223.200 124.109 C 222.210 124.109,221.805 124.187,222.300 124.282 M246.100 125.087 C 246.705 125.178,247.695 125.178,248.300 125.087 C 248.905 124.995,248.410 124.920,247.200 124.920 C 245.990 124.920,245.495 124.995,246.100 125.087 M264.705 125.483 C 265.202 125.579,265.922 125.575,266.305 125.475 C 266.687 125.375,266.280 125.296,265.400 125.301 C 264.520 125.305,264.207 125.387,264.705 125.483 M114.100 139.876 C 114.485 139.976,115.115 139.976,115.500 139.876 C 115.885 139.775,115.570 139.693,114.800 139.693 C 114.030 139.693,113.715 139.775,114.100 139.876 M192.101 279.000 C 192.105 279.880,192.187 280.193,192.283 279.695 C 192.379 279.198,192.375 278.478,192.275 278.095 C 192.175 277.713,192.096 278.120,192.101 279.000 " stroke="none" fill="#747c8c" fill-rule="evenodd"></path></g></svg>