<svg width="250.08" height="34" viewBox="0 0 250.08 34" xmlns="http://www.w3.org/2000/svg"><g id="svgGroup" stroke-linecap="round" fill-rule="evenodd" font-size="9pt" stroke="#000" stroke-width="0.25mm" fill="none" style="stroke:#000;stroke-width:0.10mm;fill:#9147ff"><path d="M 5.4 26.96 L 0 26.96 L 0 1.2 L 5.44 1.2 L 13 16.68 L 20.56 1.2 L 25.96 1.2 L 25.96 26.96 L 20.56 26.96 L 20.56 10.2 L 14.56 22.52 L 11.44 22.52 L 5.4 10.2 L 5.4 26.96 Z M 90.44 26.96 L 85.4 26.96 L 80.4 8 L 85.8 8 L 88.68 20.32 L 91.84 10.44 L 91.84 8 L 95.96 8 L 99.56 20.32 L 102.36 8 L 107.72 8 L 102.76 26.96 L 97.8 26.96 L 94.16 15.88 L 90.44 26.96 Z M 161.28 26.96 L 155.88 26.96 L 155.88 0 L 161.28 0 L 161.28 9.6 A 8.563 8.563 0 0 1 162.704 8.733 A 11.558 11.558 0 0 1 164.12 8.16 Q 165.8 7.6 167.76 7.6 A 12.758 12.758 0 0 1 169.714 7.739 Q 172.004 8.095 173.24 9.36 Q 174.574 10.725 174.873 13.246 A 13.203 13.203 0 0 1 174.96 14.8 L 174.96 26.96 L 169.56 26.96 L 169.56 15.08 A 7.455 7.455 0 0 0 169.505 14.139 Q 169.353 12.948 168.78 12.36 Q 168.097 11.66 166.387 11.572 A 9.968 9.968 0 0 0 165.88 11.56 A 5.882 5.882 0 0 0 163.97 11.888 A 7.11 7.11 0 0 0 163.38 12.12 A 7.693 7.693 0 0 0 162.16 12.794 A 6.138 6.138 0 0 0 161.28 13.52 L 161.28 26.96 Z M 30 33.36 L 30 29.56 Q 30.68 29.8 31.26 29.88 Q 31.84 29.96 32.44 29.96 A 5.687 5.687 0 0 0 33.431 29.879 Q 33.961 29.785 34.385 29.582 A 2.778 2.778 0 0 0 34.98 29.2 A 4.737 4.737 0 0 0 35.573 28.589 Q 36.096 27.953 36.626 26.971 A 16.792 16.792 0 0 0 36.8 26.64 L 28.32 8 L 33.96 8 L 39.52 20.88 L 45.04 8 L 50.64 8 L 43.16 25.64 A 32.257 32.257 0 0 1 42.004 28.111 A 24.797 24.797 0 0 1 40.9 30.02 A 10.638 10.638 0 0 1 39.53 31.751 A 8.444 8.444 0 0 1 38.04 32.96 A 6.57 6.57 0 0 1 35.66 33.866 A 8.908 8.908 0 0 1 34.08 34 A 18.879 18.879 0 0 1 33.049 33.973 Q 32.538 33.945 32.086 33.888 A 10.968 10.968 0 0 1 31.88 33.86 Q 30.92 33.72 30 33.36 Z M 193.56 26.96 L 188.16 26.96 L 188.16 1.2 L 200.52 1.2 Q 204.96 1.2 207.04 3.54 Q 209.056 5.808 209.118 9.597 A 14.797 14.797 0 0 1 209.12 9.84 A 8.449 8.449 0 0 1 208.806 12.19 A 6.967 6.967 0 0 1 207.78 14.32 A 7.197 7.197 0 0 1 204.911 16.672 A 9.201 9.201 0 0 1 204 17.04 A 5.21 5.21 0 0 1 204.622 17.633 A 4.16 4.16 0 0 1 205.02 18.16 Q 205.4 18.76 205.8 19.76 L 208.92 26.96 L 203.32 26.96 L 200.28 20.04 A 5.23 5.23 0 0 0 200.026 19.546 Q 199.732 19.049 199.4 18.8 Q 198.92 18.44 197.8 18.44 L 193.56 18.44 L 193.56 26.96 Z M 74.16 26.96 L 68.76 26.96 L 68.76 5.36 L 60.84 5.36 L 60.84 1.2 L 82.04 1.2 L 82.04 5.36 L 74.16 5.36 L 74.16 26.96 Z M 230.2 15.92 L 230.2 19.36 L 216.48 19.36 A 5.797 5.797 0 0 0 216.887 20.673 A 3.647 3.647 0 0 0 218.58 22.48 Q 220.24 23.32 223.28 23.32 A 17.721 17.721 0 0 0 226.331 23.049 A 19.36 19.36 0 0 0 226.38 23.04 Q 227.96 22.76 229.08 22.32 L 229.08 26.16 Q 227.781 26.751 226.055 27.051 A 17.161 17.161 0 0 1 226 27.06 A 20.861 20.861 0 0 1 223.797 27.31 A 26.258 26.258 0 0 1 222.16 27.36 A 15.917 15.917 0 0 1 218.953 27.056 Q 216.228 26.495 214.36 24.9 A 7.777 7.777 0 0 1 211.955 21.083 Q 211.573 19.786 211.498 18.217 A 16.347 16.347 0 0 1 211.48 17.44 A 13.653 13.653 0 0 1 211.793 14.431 Q 212.35 11.964 213.9 10.26 Q 216.32 7.6 221.12 7.6 Q 224.359 7.6 226.481 8.846 A 7.048 7.048 0 0 1 227.86 9.9 A 7.715 7.715 0 0 1 230.118 14.575 A 10.67 10.67 0 0 1 230.2 15.92 Z M 152.44 8.8 L 152.44 12.68 A 8.97 8.97 0 0 0 151.287 12.226 A 12.064 12.064 0 0 0 150.12 11.92 A 12.93 12.93 0 0 0 148.212 11.667 A 15.526 15.526 0 0 0 147.28 11.64 Q 145.288 11.64 143.914 12.181 A 5.013 5.013 0 0 0 142.64 12.9 Q 141.076 14.132 141.041 17.333 A 13.496 13.496 0 0 0 141.04 17.48 Q 141.04 19.363 141.6 20.617 A 4.094 4.094 0 0 0 142.5 21.92 A 4.319 4.319 0 0 0 143.978 22.823 Q 145.266 23.312 147.181 23.32 A 15.231 15.231 0 0 0 147.24 23.32 Q 148.64 23.32 149.98 23.04 A 10.902 10.902 0 0 0 152.261 22.303 A 10.089 10.089 0 0 0 152.48 22.2 L 152.48 26.2 A 13.365 13.365 0 0 1 149.543 27.068 Q 148.18 27.314 146.623 27.353 A 23.566 23.566 0 0 1 146.04 27.36 Q 142.417 27.36 140.005 26.078 A 8.139 8.139 0 0 1 138.26 24.84 Q 135.768 22.514 135.576 18.211 A 16.423 16.423 0 0 1 135.56 17.48 A 13.65 13.65 0 0 1 135.841 14.613 Q 136.463 11.72 138.46 10.04 A 9.947 9.947 0 0 1 142.462 8.034 Q 143.946 7.654 145.695 7.607 A 18.605 18.605 0 0 1 146.2 7.6 A 23.986 23.986 0 0 1 147.733 7.646 Q 148.785 7.714 149.64 7.88 Q 151.08 8.16 152.44 8.8 Z M 250.04 8.8 L 250.04 12.68 A 8.97 8.97 0 0 0 248.887 12.226 A 12.064 12.064 0 0 0 247.72 11.92 A 12.93 12.93 0 0 0 245.812 11.667 A 15.526 15.526 0 0 0 244.88 11.64 Q 242.888 11.64 241.514 12.181 A 5.013 5.013 0 0 0 240.24 12.9 Q 238.676 14.132 238.641 17.333 A 13.496 13.496 0 0 0 238.64 17.48 Q 238.64 19.363 239.2 20.617 A 4.094 4.094 0 0 0 240.1 21.92 A 4.319 4.319 0 0 0 241.578 22.823 Q 242.866 23.312 244.781 23.32 A 15.231 15.231 0 0 0 244.84 23.32 Q 246.24 23.32 247.58 23.04 A 10.902 10.902 0 0 0 249.861 22.303 A 10.089 10.089 0 0 0 250.08 22.2 L 250.08 26.2 A 13.365 13.365 0 0 1 247.143 27.068 Q 245.78 27.314 244.223 27.353 A 23.566 23.566 0 0 1 243.64 27.36 Q 240.017 27.36 237.605 26.078 A 8.139 8.139 0 0 1 235.86 24.84 Q 233.368 22.514 233.176 18.211 A 16.423 16.423 0 0 1 233.16 17.48 A 13.65 13.65 0 0 1 233.441 14.613 Q 234.063 11.72 236.06 10.04 A 9.947 9.947 0 0 1 240.062 8.034 Q 241.546 7.654 243.295 7.607 A 18.605 18.605 0 0 1 243.8 7.6 A 23.986 23.986 0 0 1 245.333 7.646 Q 246.385 7.714 247.24 7.88 Q 248.68 8.16 250.04 8.8 Z M 122.92 20.96 L 122.92 12.16 L 120.24 12.16 L 120.24 8 L 122.92 8 L 122.92 3.92 L 128.32 2.32 L 128.32 8 L 133.12 8 L 132.8 12.16 L 128.32 12.16 L 128.32 20.6 A 5.277 5.277 0 0 0 128.368 21.339 Q 128.487 22.177 128.901 22.612 A 1.431 1.431 0 0 0 129.04 22.74 A 2.21 2.21 0 0 0 129.692 23.093 Q 130.29 23.306 131.162 23.319 A 7.724 7.724 0 0 0 131.28 23.32 A 6.912 6.912 0 0 0 132.858 23.131 A 8.403 8.403 0 0 0 133.6 22.92 L 133.6 26.64 A 8.804 8.804 0 0 1 132.252 27.065 A 10.357 10.357 0 0 1 131.68 27.18 A 11.924 11.924 0 0 1 130.507 27.32 A 15.934 15.934 0 0 1 129.36 27.36 Q 126.08 27.36 124.5 25.64 A 5.764 5.764 0 0 1 123.164 23.093 Q 122.92 22.122 122.92 20.96 Z M 117.24 26.96 L 111.84 26.96 L 111.84 12 L 109 12 L 109.48 8 L 117.24 8 L 117.24 26.96 Z M 193.56 5.68 L 193.56 13.96 L 199.12 13.96 A 7.737 7.737 0 0 0 200.412 13.859 Q 201.634 13.652 202.44 13.02 Q 203.406 12.264 203.594 10.665 A 7.053 7.053 0 0 0 203.64 9.84 Q 203.64 8.497 203.238 7.603 A 2.927 2.927 0 0 0 202.6 6.68 A 3.231 3.231 0 0 0 201.4 5.966 Q 200.575 5.68 199.44 5.68 L 193.56 5.68 Z M 216.48 16.04 L 225.48 16.04 L 225.48 15 A 4.51 4.51 0 0 0 225.357 13.914 A 3.08 3.08 0 0 0 224.52 12.42 A 2.758 2.758 0 0 0 223.592 11.838 Q 222.687 11.48 221.28 11.48 Q 218.6 11.48 217.54 12.56 A 3.216 3.216 0 0 0 216.839 13.693 Q 216.648 14.198 216.559 14.829 A 8.653 8.653 0 0 0 216.48 16.04 Z M 117.28 4.52 L 111.4 4.52 L 111.4 0.28 L 117.28 0.28 L 117.28 4.52 Z" vector-effect="non-scaling-stroke"/></g></svg>